# xmcd
#
# Track frame offsets:
#	150
#	13150
#	33195
#	46362
#	61477
#	76069
#	88581
#	104946
#	125033
#	138370
#	151707
#	165964
#	180321
#	194488
#	211868
#	226055
#	239224
#	254141
#	271510
#	283960
#
# Disc length: 4016 seconds
#
# Revision: 0
# Processed by: cddbd v1.5.1PL2 Copyright (c) Steve Scherf et al.
# Submitted via: dBpowerAMP V4.0
#
DISCID=170fae14
DTITLE=Percy Sledge - 20 Soul Classics
DYEAR=2000
DGENRE=Soul
TTITLE0=When A Man Loves A Woman
TTITLE1=You Send Me
TTITLE2=I've Been Loving You Too Long
TTITLE3=Walkin' In The Sun
TTITLE4=Warm And Tender Love
TTITLE5=Behind Closed Doors
TTITLE6=Make It Good And Make It Last
TTITLE7=The Good Love
TTITLE8=I Believe In You
TTITLE9=My Special Prayer
TTITLE10=I'll Be Your Everything
TTITLE11=If This Is Our Last Time
TTITLE12=Hard To Be Friends
TTITLE13=Blue Water
TTITLE14=Love Among People
TTITLE15=Take Time To Know her
TTITLE16=Out Of Left Field
TTITLE17=If Loving You Is Wrong
TTITLE18=It Tears me Up
TTITLE19=Try A Little Tenderness
EXTD=20 Soul Classics
EXTT0=
EXTT1=
EXTT2=
EXTT3=
EXTT4=
EXTT5=
EXTT6=
EXTT7=
EXTT8=
EXTT9=
EXTT10=
EXTT11=
EXTT12=
EXTT13=
EXTT14=
EXTT15=
EXTT16=
EXTT17=
EXTT18=
EXTT19=
PLAYORDER=
